<?xml version="1.0" encoding="UTF-8"?> <svg xmlns="http://www.w3.org/2000/svg" viewBox="0 0 339.7 63.33"><defs><style>.cls-1,.cls-2{fill:#fff;}.cls-2{stroke:#fff;stroke-miterlimit:10;stroke-width:0.28px;}</style></defs><g id="レイヤー_2" data-name="レイヤー 2"><g id="レイヤー_1-2" data-name="レイヤー 1"><g id="グループ_36" data-name="グループ 36"><path id="パス_94" data-name="パス 94" class="cls-1" d="M208.11,46.92H201V45.35h5.58V34.76H204.1V26.28h-3.19V24.71h4.76V33.2h2.44Z"></path><path id="パス_95" data-name="パス 95" class="cls-1" d="M224.65,34.76H209.83V33.2h13.25V26.28H209.85V24.71h14.8Z"></path><rect id="長方形_55" data-name="長方形 55" class="cls-1" x="209.86" y="36.67" width="14.85" height="1.57"></rect><rect id="長方形_56" data-name="長方形 56" class="cls-1" x="209.86" y="40.51" width="14.85" height="1.57"></rect><rect id="長方形_57" data-name="長方形 57" class="cls-1" x="216.64" y="22.85" width="1.57" height="23.95"></rect><rect id="長方形_58" data-name="長方形 58" class="cls-1" x="206.87" y="45.35" width="17.84" height="1.57"></rect><rect id="長方形_59" data-name="長方形 59" class="cls-1" x="209.87" y="28.96" width="16.31" height="1.57"></rect><rect id="長方形_60" data-name="長方形 60" class="cls-1" x="233.81" y="22.8" width="1.57" height="6.8"></rect><rect id="長方形_61" data-name="長方形 61" class="cls-1" x="234.96" y="24.77" width="20.9" height="1.57"></rect><rect id="長方形_62" data-name="長方形 62" class="cls-1" x="244.33" y="22.8" width="1.57" height="6.8"></rect><rect id="長方形_63" data-name="長方形 63" class="cls-1" x="238.77" y="25.86" width="1.57" height="3.73"></rect><rect id="長方形_64" data-name="長方形 64" class="cls-1" x="250.2" y="25.86" width="1.57" height="3.73"></rect><rect id="長方形_65" data-name="長方形 65" class="cls-1" x="233.79" y="30.63" width="7.25" height="1.57"></rect><rect id="長方形_66" data-name="長方形 66" class="cls-1" x="235.5" y="32.14" width="1.57" height="4.07"></rect><rect id="長方形_67" data-name="長方形 67" class="cls-1" x="230.4" y="35.09" width="10.68" height="1.57"></rect><path id="パス_96" data-name="パス 96" class="cls-1" d="M255.84,37.79h-4.3V32.18h-7.89V37h-1.57V30.62h11v5.6h2.74Z"></path><rect id="長方形_68" data-name="長方形 68" class="cls-1" x="233.76" y="40.2" width="22.08" height="1.57"></rect><rect id="長方形_69" data-name="長方形 69" class="cls-1" x="242.08" y="37.7" width="1.57" height="9.22"></rect><path id="パス_97" data-name="パス 97" class="cls-1" d="M240.83,46.92h-4.55V45.35h3V41.57h1.57Z"></path><path id="パス_98" data-name="パス 98" class="cls-1" d="M251.32,46.92h-4.55V41.57h1.57v3.78h3Z"></path><rect id="長方形_70" data-name="長方形 70" class="cls-1" x="246.64" y="35.09" width="2.18" height="1.57"></rect><rect id="長方形_71" data-name="長方形 71" class="cls-1" x="261.97" y="24.75" width="20.02" height="1.57"></rect><rect id="長方形_72" data-name="長方形 72" class="cls-1" x="265.8" y="22.8" width="1.57" height="7.43"></rect><rect id="長方形_73" data-name="長方形 73" class="cls-1" x="276.82" y="22.8" width="1.57" height="7.43"></rect><rect id="長方形_74" data-name="長方形 74" class="cls-1" x="261.97" y="31.51" width="20.02" height="1.57"></rect><rect id="長方形_75" data-name="長方形 75" class="cls-1" x="261.97" y="36.67" width="20.02" height="1.57"></rect><rect id="長方形_76" data-name="長方形 76" class="cls-1" x="265.81" y="38.07" width="1.57" height="7.35"></rect><path id="パス_99" data-name="パス 99" class="cls-1" d="M281.9,46.89H262V45.32h18.36V40.15h1.57Z"></path><path id="パス_100" data-name="パス 100" class="cls-1" d="M292.12,29h-4.78V27.47h3.22V22.8h1.56Z"></path><path id="パス_101" data-name="パス 101" class="cls-1" d="M295.4,33h-8.07V31.41h6.51v-8.6h1.56Z"></path><rect id="長方形_77" data-name="長方形 77" class="cls-1" x="290.56" y="32.29" width="1.57" height="14.63"></rect><rect id="長方形_78" data-name="長方形 78" class="cls-1" x="294.2" y="31.41" width="9.08" height="1.57"></rect><rect id="長方形_79" data-name="長方形 79" class="cls-1" x="298.02" y="22.8" width="1.57" height="24.12"></rect><rect id="長方形_80" data-name="長方形 80" class="cls-1" x="294.38" y="36.21" width="1.57" height="5.99"></rect><rect id="長方形_81" data-name="長方形 81" class="cls-1" x="301.67" y="36.21" width="1.57" height="5.99"></rect><rect id="長方形_82" data-name="長方形 82" class="cls-1" x="304.44" y="22.81" width="6.38" height="1.57"></rect><rect id="長方形_83" data-name="長方形 83" class="cls-1" x="304.44" y="31.41" width="6.38" height="1.57"></rect><path id="パス_102" data-name="パス 102" class="cls-1" d="M308.41,47H304V45.43h2.87V32.87h1.57Z"></path><rect id="長方形_84" data-name="長方形 84" class="cls-1" x="301.68" y="22.74" width="1.57" height="6.55"></rect><path id="パス_103" data-name="パス 103" class="cls-1" d="M326.92,34.48H315.6V32.92h9.75V24.35H320.3v6h-4.7V28.8h3.13v-6h8.19Z"></path><path id="パス_104" data-name="パス 104" class="cls-1" d="M339.1,34.49h-8.43V28.88h6.73v1.56h-5.17v2.48h6.87Z"></path><path id="パス_105" data-name="パス 105" class="cls-1" d="M339.21,28.64h-1.57V24.35h-7.2V22.78h8.77Z"></path><path id="パス_106" data-name="パス 106" class="cls-1" d="M332.74,30.44h-4V25.7h1.56v3.18h2.47Z"></path><rect id="長方形_85" data-name="長方形 85" class="cls-1" x="320.07" y="27.04" width="5.94" height="1.57"></rect><rect id="長方形_86" data-name="長方形 86" class="cls-1" x="322.02" y="35.97" width="10.59" height="1.57"></rect><rect id="長方形_87" data-name="長方形 87" class="cls-1" x="315.6" y="39.11" width="23.55" height="1.57"></rect><path id="パス_107" data-name="パス 107" class="cls-1" d="M328.88,46.89H323.7V45.32h3.61V40.07h1.57Z"></path><rect id="長方形_88" data-name="長方形 88" class="cls-1" x="318.91" y="40.56" width="1.57" height="6.37"></rect><rect id="長方形_89" data-name="長方形 89" class="cls-1" x="333.89" y="40.56" width="1.57" height="6.37"></rect><path id="パス_108" data-name="パス 108" class="cls-2" d="M185.91,54.46V49.35h0l-3.65,5.12h-.17V49.35h0l-3.66,5.12h-.26l3.8-5.33h.35V54h0l3.48-4.87h.34v5.33Z"></path><path id="パス_109" data-name="パス 109" class="cls-2" d="M185.91,54.46V49.35h0l-3.65,5.12h-.17V49.35h0l-3.66,5.12h-.26l3.8-5.33h.35V54h0l3.48-4.87h.34v5.33Z"></path><path id="パス_110" data-name="パス 110" class="cls-2" d="M191.79,54.46v-1.8h-2.45l-1.28,1.8h-.27l3.79-5.32H192v5.32Zm0-5.24h0l-2.3,3.24h2.31Z"></path><path id="パス_111" data-name="パス 111" class="cls-2" d="M191.79,54.46v-1.8h-2.45l-1.28,1.8h-.27l3.79-5.32H192v5.32Zm0-5.24h0l-2.3,3.24h2.31Z"></path><path id="パス_112" data-name="パス 112" class="cls-2" d="M195.15,54.46V49.33h-1.44v-.19h3.11v.19h-1.45v5.13Z"></path><path id="パス_113" data-name="パス 113" class="cls-2" d="M195.15,54.46V49.33h-1.44v-.19h3.11v.19h-1.45v5.13Z"></path><g id="グループ_35" data-name="グループ 35"><g id="グループ_34" data-name="グループ 34"><path id="パス_114" data-name="パス 114" class="cls-2" d="M199.57,51.76c-1-.25-1.3-.75-1.3-1.34a1.36,1.36,0,0,1,1.35-1.37h.09a1.35,1.35,0,0,1,1.38,1.24h-.22a1.11,1.11,0,0,0-1.17-1,1.15,1.15,0,0,0-1.22,1.08v.08c0,.53.27.93,1.15,1.15l.43.12a1.36,1.36,0,0,1,1.18,1.39,1.55,1.55,0,0,1-3.09,0h.22a1.33,1.33,0,0,0,2.65,0c0-.65-.34-1.07-1.27-1.3Z"></path><path id="パス_115" data-name="パス 115" class="cls-2" d="M199.57,51.76c-1-.25-1.3-.75-1.3-1.34a1.36,1.36,0,0,1,1.35-1.37h.09a1.35,1.35,0,0,1,1.38,1.24h-.22a1.11,1.11,0,0,0-1.17-1,1.15,1.15,0,0,0-1.22,1.08v.08c0,.53.27.93,1.15,1.15l.43.12a1.36,1.36,0,0,1,1.18,1.39,1.55,1.55,0,0,1-3.09,0h.22a1.33,1.33,0,0,0,2.65,0c0-.65-.34-1.07-1.27-1.3Z"></path><path id="パス_116" data-name="パス 116" class="cls-2" d="M206.24,49.14h.22v3.64a1.64,1.64,0,0,1-3.27.28c0-.1,0-.2,0-.3V49.14h.21V52.9a1.42,1.42,0,0,0,2.83.07V49.14Z"></path><path id="パス_117" data-name="パス 117" class="cls-2" d="M206.24,49.14h.22v3.64a1.64,1.64,0,0,1-3.27.28c0-.1,0-.2,0-.3V49.14h.21V52.9a1.42,1.42,0,0,0,2.83.07V49.14Z"></path><path id="パス_118" data-name="パス 118" class="cls-2" d="M215.6,54.46V49.35h0l-3.65,5.11h-.16V49.35h0l-3.65,5.12h-.27l3.81-5.33H212V54h0l3.47-4.87h.35v5.33Z"></path><path id="パス_119" data-name="パス 119" class="cls-2" d="M215.6,54.46V49.35h0l-3.65,5.11h-.16V49.35h0l-3.65,5.12h-.27l3.81-5.33H212V54h0l3.47-4.87h.35v5.33Z"></path><path id="パス_120" data-name="パス 120" class="cls-2" d="M217.81,51.8a2.77,2.77,0,1,1,2.77,2.76h0a2.73,2.73,0,0,1-2.77-2.68V51.8m5.31,0a2.55,2.55,0,1,0-2.54,2.56,2.51,2.51,0,0,0,2.54-2.49V51.8"></path><path id="パス_121" data-name="パス 121" class="cls-2" d="M217.81,51.8a2.77,2.77,0,1,1,2.77,2.76h0a2.73,2.73,0,0,1-2.77-2.68Zm5.31,0a2.55,2.55,0,1,0-2.54,2.56,2.51,2.51,0,0,0,2.54-2.49Z"></path><path id="パス_122" data-name="パス 122" class="cls-2" d="M225.79,54.46V49.33h-1.45v-.19h3.11v.19H226v5.13Z"></path><path id="パス_123" data-name="パス 123" class="cls-2" d="M225.79,54.46V49.33h-1.45v-.19h3.11v.19H226v5.13Z"></path><path id="パス_124" data-name="パス 124" class="cls-2" d="M228.44,51.8a2.77,2.77,0,1,1,2.77,2.76h0a2.73,2.73,0,0,1-2.77-2.68V51.8m5.31,0a2.55,2.55,0,1,0-2.54,2.56,2.51,2.51,0,0,0,2.54-2.49V51.8"></path><path id="パス_125" data-name="パス 125" class="cls-2" d="M228.44,51.8a2.77,2.77,0,1,1,2.77,2.76h0a2.73,2.73,0,0,1-2.77-2.68Zm5.31,0a2.55,2.55,0,1,0-2.54,2.56,2.51,2.51,0,0,0,2.54-2.49Z"></path><path id="パス_126" data-name="パス 126" class="cls-2" d="M241.79,54.46v-1.8h-2.45l-1.28,1.8h-.27l3.78-5.32H242v5.32Zm0-5.24h0l-2.29,3.24h2.31Z"></path><path id="パス_127" data-name="パス 127" class="cls-2" d="M241.79,54.46v-1.8h-2.45l-1.28,1.8h-.27l3.78-5.32H242v5.32Zm0-5.24h0l-2.29,3.24h2.31Z"></path><path id="パス_128" data-name="パス 128" class="cls-2" d="M244.19,54.46V50.65h.2v.69h0a1.38,1.38,0,0,1,1.33-.78v.19a1.34,1.34,0,0,0-1.36,1.34,1.21,1.21,0,0,0,0,.19v2.18Z"></path><path id="パス_129" data-name="パス 129" class="cls-2" d="M244.19,54.46V50.65h.2v.69h0a1.38,1.38,0,0,1,1.33-.78v.19a1.34,1.34,0,0,0-1.36,1.34,1.21,1.21,0,0,0,0,.19v2.18Z"></path><path id="パス_130" data-name="パス 130" class="cls-2" d="M250.82,53.26a1.94,1.94,0,0,1-1.89,1.3,2,2,0,1,1,1.9-2.67h-.23a1.72,1.72,0,0,0-1.68-1.14,1.82,1.82,0,0,0,0,3.63h0a1.76,1.76,0,0,0,1.67-1.11Z"></path><path id="パス_131" data-name="パス 131" class="cls-2" d="M250.82,53.26a1.94,1.94,0,0,1-1.89,1.3,2,2,0,1,1,1.9-2.67h-.23a1.72,1.72,0,0,0-1.68-1.14,1.82,1.82,0,0,0,0,3.63h0a1.76,1.76,0,0,0,1.67-1.11Z"></path><path id="パス_132" data-name="パス 132" class="cls-2" d="M256,54.46v-2c0-1.1-.54-1.69-1.54-1.69A1.43,1.43,0,0,0,252.92,52a1.77,1.77,0,0,0,0,.23v2.2h-.21V49.14h.2v2.24h0a1.61,1.61,0,0,1,1.51-.82c1.17,0,1.77.66,1.77,1.9v2Z"></path><path id="パス_133" data-name="パス 133" class="cls-2" d="M256,54.46v-2c0-1.1-.54-1.69-1.54-1.69A1.43,1.43,0,0,0,252.92,52a1.77,1.77,0,0,0,0,.23v2.2h-.21V49.14h.2v2.24h0a1.61,1.61,0,0,1,1.51-.82c1.17,0,1.77.66,1.77,1.9v2Z"></path><path id="パス_134" data-name="パス 134" class="cls-2" d="M258.39,49.14h.2v.65h-.2Zm0,1.51h.2v3.81h-.2Z"></path><path id="パス_135" data-name="パス 135" class="cls-2" d="M258.39,49.14h.2v.65h-.2Zm0,1.51h.2v3.81h-.2Z"></path><path id="パス_136" data-name="パス 136" class="cls-2" d="M260.76,54.46V49.14h.2v1.5h1v.19h-1v3.63Z"></path><path id="パス_137" data-name="パス 137" class="cls-2" d="M260.76,54.46V49.14h.2v1.5h1v.19h-1v3.63Z"></path><path id="パス_138" data-name="パス 138" class="cls-2" d="M266.49,54.11a2,2,0,1,1,.36-2.71l-2.92,2.46a1.94,1.94,0,0,0,1.27.51,1.83,1.83,0,0,0,1.29-.53Zm.08-2.73a1.81,1.81,0,0,0-2.78,2.33Z"></path><path id="パス_139" data-name="パス 139" class="cls-2" d="M266.49,54.11a2,2,0,1,1,.36-2.71l-2.92,2.46a1.94,1.94,0,0,0,1.27.51,1.83,1.83,0,0,0,1.29-.53Zm.08-2.73a1.81,1.81,0,0,0-2.78,2.33Z"></path><path id="パス_140" data-name="パス 140" class="cls-2" d="M272.35,53.26a1.92,1.92,0,0,1-1.89,1.3,2,2,0,1,1,1.9-2.67h-.22a1.74,1.74,0,0,0-1.69-1.14,1.82,1.82,0,0,0,0,3.63,1.76,1.76,0,0,0,1.67-1.11Z"></path><path id="パス_141" data-name="パス 141" class="cls-2" d="M272.35,53.26a1.92,1.92,0,0,1-1.89,1.3,2,2,0,1,1,1.9-2.67h-.22a1.74,1.74,0,0,0-1.69-1.14,1.82,1.82,0,0,0,0,3.63,1.76,1.76,0,0,0,1.67-1.11Z"></path><path id="パス_142" data-name="パス 142" class="cls-2" d="M274.44,54.46V50.84h-.84v-.2h.84v-1.5h.2v1.5h1v.19h-1v3.63Z"></path><path id="パス_143" data-name="パス 143" class="cls-2" d="M274.44,54.46V50.84h-.84v-.2h.84v-1.5h.2v1.5h1v.19h-1v3.63Z"></path><path id="パス_144" data-name="パス 144" class="cls-2" d="M280.62,54.46v-.77h0a1.56,1.56,0,0,1-1.5.87,1.65,1.65,0,0,1-1.8-1.47,2,2,0,0,1,0-.42v-2h.2v2c0,1.16.58,1.7,1.54,1.7a1.42,1.42,0,0,0,1.56-1.28,1.31,1.31,0,0,0,0-.28V50.65h.2v3.82Z"></path><path id="パス_145" data-name="パス 145" class="cls-2" d="M280.62,54.46v-.77h0a1.56,1.56,0,0,1-1.5.87,1.65,1.65,0,0,1-1.8-1.47,2,2,0,0,1,0-.42v-2h.2v2c0,1.16.58,1.7,1.54,1.7a1.42,1.42,0,0,0,1.56-1.28,1.31,1.31,0,0,0,0-.28V50.65h.2v3.82Z"></path><path id="パス_146" data-name="パス 146" class="cls-2" d="M283,54.46V50.65h.2v.69h0a1.39,1.39,0,0,1,1.33-.78v.19a1.34,1.34,0,0,0-1.35,1.34,1.21,1.21,0,0,0,0,.19v2.18Z"></path><path id="パス_147" data-name="パス 147" class="cls-2" d="M283,54.46V50.65h.2v.69h0a1.39,1.39,0,0,1,1.33-.78v.19a1.34,1.34,0,0,0-1.35,1.34,1.21,1.21,0,0,0,0,.19v2.18Z"></path><path id="パス_148" data-name="パス 148" class="cls-2" d="M289,54.11A2,2,0,1,1,286.45,51a2,2,0,0,1,1.29-.47,2,2,0,0,1,1.66.84l-2.92,2.46a1.9,1.9,0,0,0,1.26.51,1.86,1.86,0,0,0,1.3-.53Zm.08-2.73a1.81,1.81,0,0,0-2.78,2.33Z"></path><path id="パス_149" data-name="パス 149" class="cls-2" d="M289,54.11A2,2,0,1,1,286.45,51a2,2,0,0,1,1.29-.47,2,2,0,0,1,1.66.84l-2.92,2.46a1.9,1.9,0,0,0,1.26.51,1.86,1.86,0,0,0,1.3-.53Zm.08-2.73a1.81,1.81,0,0,0-2.78,2.33Z"></path><path id="パス_150" data-name="パス 150" class="cls-2" d="M292.36,54.46v-1.7h-1.7v-.2h1.7v-1.7h.2v1.7h1.7v.2h-1.7v1.7Z"></path><path id="パス_151" data-name="パス 151" class="cls-2" d="M292.36,54.46v-1.7h-1.7v-.2h1.7v-1.7h.2v1.7h1.7v.2h-1.7v1.7Z"></path><path id="パス_152" data-name="パス 152" class="cls-2" d="M299.25,54.46v-1.8H296.8l-1.28,1.8h-.27L299,49.14h.43v5.32Zm0-5.24h0l-2.3,3.24h2.31Z"></path><path id="パス_153" data-name="パス 153" class="cls-2" d="M299.25,54.46v-1.8H296.8l-1.28,1.8h-.27L299,49.14h.43v5.32Zm0-5.24h0l-2.3,3.24h2.31Z"></path><path id="パス_154" data-name="パス 154" class="cls-2" d="M301.65,54.46V50.65h.2v.69h0a1.38,1.38,0,0,1,1.33-.78v.19a1.36,1.36,0,0,0-1.36,1.34,1.23,1.23,0,0,0,0,.19v2.18Z"></path><path id="パス_155" data-name="パス 155" class="cls-2" d="M301.65,54.46V50.65h.2v.69h0a1.38,1.38,0,0,1,1.33-.78v.19a1.36,1.36,0,0,0-1.36,1.34,1.23,1.23,0,0,0,0,.19v2.18Z"></path><path id="パス_156" data-name="パス 156" class="cls-2" d="M304.91,54.46V49.14h.2v1.5h1v.19h-1v3.63Z"></path><path id="パス_157" data-name="パス 157" class="cls-2" d="M304.91,54.46V49.14h.2v1.5h1v.19h-1v3.63Z"></path><path id="パス_158" data-name="パス 158" class="cls-2" d="M310,54.46V49.14h2.62v.19h-2.4v2.36h2.4v.19h-2.4v2.58Z"></path><path id="パス_159" data-name="パス 159" class="cls-2" d="M310,54.46V49.14h2.62v.19h-2.4v2.36h2.4v.19h-2.4v2.58Z"></path><path id="パス_160" data-name="パス 160" class="cls-2" d="M317.48,54.11A2,2,0,1,1,314.89,51a2,2,0,0,1,1.29-.47,2,2,0,0,1,1.66.84l-2.92,2.46a1.9,1.9,0,0,0,1.26.51,1.86,1.86,0,0,0,1.3-.53Zm.08-2.73a1.81,1.81,0,0,0-2.78,2.33Z"></path><path id="パス_161" data-name="パス 161" class="cls-2" d="M317.48,54.11A2,2,0,1,1,314.89,51a2,2,0,0,1,1.29-.47,2,2,0,0,1,1.66.84l-2.92,2.46a1.9,1.9,0,0,0,1.26.51,1.86,1.86,0,0,0,1.3-.53Zm.08-2.73a1.81,1.81,0,0,0-2.78,2.33Z"></path><path id="パス_162" data-name="パス 162" class="cls-2" d="M321.5,51.55a.82.82,0,0,0-1.64,0c0,.42.25.65.88.82l.11,0c.81.22,1,.62,1,1.14a1.09,1.09,0,0,1-1.1,1.05,1.11,1.11,0,0,1-1.18-1v-.11h.2a.91.91,0,0,0,.85,1h.12a.88.88,0,0,0,.91-.85v-.06c0-.47-.21-.75-.92-.93l-.12,0c-.7-.17-.91-.49-.91-1a1,1,0,0,1,.91-1h.13a.93.93,0,0,1,1,.86.57.57,0,0,1,0,.13Z"></path><path id="パス_163" data-name="パス 163" class="cls-2" d="M321.5,51.55a.82.82,0,0,0-1.64,0c0,.42.25.65.88.82l.11,0c.81.22,1,.62,1,1.14a1.09,1.09,0,0,1-1.1,1.05,1.11,1.11,0,0,1-1.18-1v-.11h.2a.91.91,0,0,0,.85,1h.12a.88.88,0,0,0,.91-.85v-.06c0-.47-.21-.75-.92-.93l-.12,0c-.7-.17-.91-.49-.91-1a1,1,0,0,1,.91-1h.13a.93.93,0,0,1,1,.86.57.57,0,0,1,0,.13Z"></path><path id="パス_164" data-name="パス 164" class="cls-2" d="M323.84,54.46V49.14h.2v1.5h1v.19h-1v3.63Z"></path><path id="パス_165" data-name="パス 165" class="cls-2" d="M323.84,54.46V49.14h.2v1.5h1v.19h-1v3.63Z"></path><path id="パス_166" data-name="パス 166" class="cls-2" d="M326.72,49.14h.2v.65h-.2Zm0,1.51h.2v3.81h-.2Z"></path><path id="パス_167" data-name="パス 167" class="cls-2" d="M326.72,49.14h.2v.65h-.2Zm0,1.51h.2v3.81h-.2Z"></path><path id="パス_168" data-name="パス 168" class="cls-2" d="M329.09,54.46V50.65h.2v3.63h0l2.55-3.63h.25l-2.68,3.82Z"></path><path id="パス_169" data-name="パス 169" class="cls-2" d="M329.09,54.46V50.65h.2v3.63h0l2.55-3.63h.25l-2.68,3.82Z"></path><path id="パス_170" data-name="パス 170" class="cls-2" d="M337,54.46v-1h0a1.89,1.89,0,0,1-1.77,1.05,2,2,0,0,1,0-4A1.91,1.91,0,0,1,337,51.62h0v-1h.2v3.81Zm0-1.9a1.81,1.81,0,1,0-1.8,1.81h0A1.79,1.79,0,0,0,337,52.6v0"></path><path id="パス_171" data-name="パス 171" class="cls-2" d="M337,54.46v-1h0a1.89,1.89,0,0,1-1.77,1.05,2,2,0,0,1,0-4A1.91,1.91,0,0,1,337,51.62h0v-1h.2v3.81Zm0-1.9a1.81,1.81,0,1,0-1.8,1.81h0A1.79,1.79,0,0,0,337,52.6v0Z"></path><rect id="長方形_90" data-name="長方形 90" class="cls-2" x="339.36" y="49.14" width="0.2" height="5.32"></rect><rect id="長方形_91" data-name="長方形 91" class="cls-2" x="339.36" y="49.14" width="0.2" height="5.32"></rect><path id="パス_172" data-name="パス 172" class="cls-1" d="M32.77,3.33,36.11,0H32.93L29.59,3.33Z"></path><path id="パス_173" data-name="パス 173" class="cls-1" d="M38.88,3.33,42.22,0H39L35.7,3.33Z"></path><rect id="長方形_92" data-name="長方形 92" class="cls-1" x="83.27" width="3.33" height="22.7"></rect><rect id="長方形_93" data-name="長方形 93" class="cls-1" x="72.38" width="3.33" height="22.7"></rect><path id="パス_174" data-name="パス 174" class="cls-1" d="M26.67,3.33,30,0H26.82L23.49,3.33Z"></path><path id="パス_175" data-name="パス 175" class="cls-1" d="M135.34,39.06l3.34-3.33V32.55l-3.34,3.33Z"></path><path id="パス_176" data-name="パス 176" class="cls-1" d="M176,25.14V12.9h-3.33v38h-34v-.07l-3.34,3.33v.08H176V28.48h22.71V25.14Z"></path><path id="パス_177" data-name="パス 177" class="cls-1" d="M138.68,44.75l-3.34,3.34v3.18l3.34-3.33Z"></path><path id="パス_178" data-name="パス 178" class="cls-1" d="M23.9,0H0V3.33H20.57Z"></path><path id="パス_179" data-name="パス 179" class="cls-1" d="M138.68,38.65,135.34,42v3.19l3.34-3.34Z"></path><path id="パス_180" data-name="パス 180" class="cls-1" d="M135.34,33l3.34-3.34V22.81h23.86V19.48H138.68V3.33h23.86V0H118.37L59.75,58.62,32.61,31.49,64.1,0h-19L41.8,3.33H56.05L30.26,29.13l-17-17-2.36,2.35L59.75,63.33l40.52-40.52h35.07ZM103.61,19.48,119.75,3.33h15.59V19.48Z"></path></g></g></g></g></g></svg> 